<?xml version="1.0" encoding="UTF-8" standalone="no"?>
<!-- Generator: Adobe Illustrator 19.0.0, SVG Export Plug-In . SVG Version: 6.00 Build 0)  -->

<svg
   xmlns:dc="http://purl.org/dc/elements/1.1/"
   xmlns:cc="http://creativecommons.org/ns#"
   xmlns:rdf="http://www.w3.org/1999/02/22-rdf-syntax-ns#"
   xmlns:svg="http://www.w3.org/2000/svg"
   xmlns="http://www.w3.org/2000/svg"
   xmlns:sodipodi="http://sodipodi.sourceforge.net/DTD/sodipodi-0.dtd"
   xmlns:inkscape="http://www.inkscape.org/namespaces/inkscape"
   version="1.1"
   id="Capa_1"
   x="0px"
   y="0px"
   viewBox="0 0 463.701 463.701"
   style="enable-background:new 0 0 463.701 463.701;"
   xml:space="preserve"
   inkscape:version="0.91 r13725"
   sodipodi:docname="gift.svg"><metadata
     id="metadata67"><rdf:RDF><cc:Work
         rdf:about=""><dc:format>image/svg+xml</dc:format><dc:type
           rdf:resource="http://purl.org/dc/dcmitype/StillImage" /><dc:title></dc:title></cc:Work></rdf:RDF></metadata><defs
     id="defs65" /><sodipodi:namedview
     pagecolor="#ffffff"
     bordercolor="#666666"
     borderopacity="1"
     objecttolerance="10"
     gridtolerance="10"
     guidetolerance="10"
     inkscape:pageopacity="0"
     inkscape:pageshadow="2"
     inkscape:window-width="1317"
     inkscape:window-height="744"
     id="namedview63"
     showgrid="false"
     inkscape:zoom="0.50894867"
     inkscape:cx="-138.52085"
     inkscape:cy="310.44388"
     inkscape:window-x="49"
     inkscape:window-y="24"
     inkscape:window-maximized="1"
     inkscape:current-layer="g3" /><g
     id="g3"><path
       style="fill:#cccccc"
       d="M255.85,67.613l75.051-31.271c4.09-1.703,8.766,0.23,10.461,4.305   c1.699,4.078-0.227,8.762-4.305,10.461L255.85,84.943v10.717L362.788,75.61c10.448-1.959,16.116-13.374,11.362-22.881l-21.94-43.88   c-4.464-8.928-15.925-11.634-23.911-5.645l-74.133,55.599c1.052,1.354,1.684,3.05,1.684,4.898V67.613z"
       id="path5" /><path
       style="fill:#5599ff;fill-opacity:1"
       d="M159.85,313.547c0-23.111,18.735-41.846,41.846-41.846c4.969,0,9.733,0.871,14.154,2.461v-74.461   h-184v248c0,8.837,7.163,16,16,16h168v-72.537C186.945,372.574,159.85,340.733,159.85,313.547z"
       id="path7" /><path
       style="fill:#5599ff;fill-opacity:1"
       d="M247.85,273.746c4.071-1.322,8.411-2.045,12.923-2.045c23.111,0,41.846,18.735,41.846,41.846   c0,26.8-26.331,58.123-54.769,76.816v73.338h168c8.837,0,16-7.163,16-16v-248h-184V273.746z"
       id="path9" /><rect
       x="247.85"
       y="183.701"
       style="fill:#0055d4;fill-opacity:1"
       width="184"
       height="16"
       id="rect11" /><rect
       x="31.85"
       y="183.701"
       style="fill:#0055d4;fill-opacity:1"
       width="184"
       height="16"
       id="rect13" /><path
       style="fill:#0055d4;fill-opacity:1"
       d="M431.85,95.701h-176h-8v88h184h16v-72C447.85,102.864,440.687,95.701,431.85,95.701z"
       id="path15" /><path
       style="fill:#0055d4;fill-opacity:1"
       d="M215.85,95.701h-8h-176c-8.837,0-16,7.164-16,16v72h16h184V95.701z"
       id="path17" /><path
       style="fill:#cccccc"
       d="M126.643,51.107c-4.078-1.699-6.004-6.383-4.305-10.461c1.695-4.074,6.375-6.012,10.461-4.305   l75.051,31.271v-3.912c0-1.847,0.632-3.543,1.684-4.898L135.402,3.204c-7.986-5.99-19.447-3.284-23.911,5.645l-21.94,43.88   c-4.754,9.508,0.914,20.922,11.362,22.881L207.85,95.661V84.943L126.643,51.107z"
       id="path19" /><path
       style="fill:#999999"
       d="M215.85,95.701h32h8v-0.04V84.943l81.207-33.836c4.078-1.699,6.004-6.383,4.305-10.461   c-1.695-4.074-6.371-6.008-10.461-4.305L255.85,67.613v-3.912c0-1.847-0.632-3.543-1.684-4.898   c-1.464-1.885-3.745-3.102-6.316-3.102h-32c-2.571,0-4.852,1.218-6.316,3.102c-1.052,1.354-1.684,3.05-1.684,4.898v3.912   L132.8,36.341c-4.086-1.707-8.766,0.23-10.461,4.305c-1.699,4.078,0.227,8.762,4.305,10.461l81.207,33.836v10.717v0.04H215.85z"
       id="path21" /><rect
       x="215.85"
       y="95.701"
       style="fill:#cccccc"
       width="32"
       height="88"
       id="rect23" /><path
       style="fill:#cccccc"
       d="M215.85,274.161c5.839,2.099,11.077,5.456,15.385,9.749c4.607-4.592,10.282-8.109,16.615-10.165   v-74.045h-32V274.161z"
       id="path25" /><path
       style="fill:#cccccc"
       d="M231.235,399.701c-5.092-2.361-10.266-5.245-15.385-8.537v72.537h32v-73.338   C242.332,393.991,236.735,397.15,231.235,399.701z"
       id="path27" /><rect
       x="215.85"
       y="183.701"
       style="fill:#cccccc"
       width="32"
       height="16"
       id="rect29" /><path
       style="fill:#0055d4;fill-opacity:1"
       d="M215.85,274.161c-4.421-1.59-9.185-2.461-14.154-2.461c-23.111,0-41.846,18.735-41.846,41.846   c0,27.186,27.095,59.027,56,77.617c5.119,3.292,10.293,6.176,15.385,8.537c5.5-2.55,11.097-5.71,16.615-9.338   c28.439-18.693,54.769-50.017,54.769-76.816c0-23.111-18.735-41.846-41.846-41.846c-4.512,0-8.852,0.723-12.923,2.045   c-6.333,2.056-12.008,5.573-16.615,10.165C226.928,279.618,221.689,276.261,215.85,274.161z"
       id="path31" /></g><g
     id="g33" /><g
     id="g35" /><g
     id="g37" /><g
     id="g39" /><g
     id="g41" /><g
     id="g43" /><g
     id="g45" /><g
     id="g47" /><g
     id="g49" /><g
     id="g51" /><g
     id="g53" /><g
     id="g55" /><g
     id="g57" /><g
     id="g59" /><g
     id="g61" /></svg>